<?xml version="1.0" encoding="utf-8"?>
<!DOCTYPE svg PUBLIC "-//W3C//DTD SVG 1.1//EN" "http://www.w3.org/Graphics/SVG/1.1/DTD/svg11.dtd">
<svg version="1.1" xmlns="http://www.w3.org/2000/svg" xmlns:xlink="http://www.w3.org/1999/xlink" x="0" y="0" width="792" height="859" viewBox="0 0 792 859">
<style type="text/css">
	.st0{fill:#DDE2FF;stroke:#000;stroke-linejoin:round;}
	.st1{fill:none;stroke:#000;}
	.st2{fill:#6369C2;stroke:#000;}
	.st3{fill:#DDE2FF;stroke:#000;}
	.st4{fill:#F90200;stroke:#000;}
	.st5{fill:#FFC314;stroke:#000;}
	.st6{fill:#A59EDA;stroke:#000;stroke-width:0.5;}
	.st7{fill:#FFC314;fill-opacity:0.5;stroke:#000;}
	.st8{fill:#DDD8BC;stroke:#000;}
	.st9{fill:#585746;stroke:#000;}
</style>
<g id="lower_cog">
	<path class="st0" d="M578.1,627.4c0,0-2.4-2.5-7.7,3.6c-3.5-2-31.4-17.1-38.1-31.7s-15.3-33-16-34l41.8-0.3l-0.7-11.8
		c0,0-3.2-1.3-5.6,6.4c-4-0.4-35.6-2.8-47.7-13.5s-27.4-23.9-28.4-24.6l38-17.2l-5.4-10.5c0,0-3.4,0.1-2.5,8.1
		c-3.8,1.2-33.7,11.9-49.1,7.1c-15.4-4.8-34.7-10.7-36-10.9l27.7-31.2l-9.2-7.4c0,0-3.1,1.5,1,8.4c-3,2.7-26,24.6-42,26.5
		c-16,1.9-36.1,4.4-37.3,4.7l12.6-39.8l-11.4-3c0,0-2.2,2.6,4.3,7.3c-1.6,3.6-13.7,33-27.6,41.3s-31.2,18.7-32.2,19.5l-4.6-41.5
		l-11.7,1.9c0,0-1,3.3,6.9,4.9c0,4,0.9,35.7-8.4,48.9c-9.3,13.2-20.9,29.7-21.5,30.9l-21.1-36l-9.9,6.5c0,0,0.5,3.4,8.3,1.7
		c1.6,3.6,15.4,32.3,12.2,48.1s-7,35.7-7.1,36.9l-34-24.3l-6.4,9.9c0,0,1.8,2.9,8.3-1.9c3,2.7,27.2,23.3,30.7,39
		c3.6,15.7,8.1,35.4,8.6,36.6l-40.9-8.4l-1.8,11.7c0,0,2.9,1.9,6.8-5.1c3.8,1.2,34.3,10.2,43.9,23.1c9.6,12.9,21.8,29.1,22.7,30
		l-40.8,9l3.1,11.4c0,0,3.4,0.6,4.1-7.4c4-0.4,35.5-4.6,49.5,3.2c14.1,7.9,31.7,17.7,32.9,18.1L303,795.9l7.5,9.2
		c0,0,3.3-0.8,0.8-8.4c3.5-2,30.5-18.6,46.5-17.2c16,1.5,36.2,3.2,37.5,3.2L374.7,819l10.6,5.3c0,0,2.7-2.1-2.7-8
		c2.3-3.2,20.3-29.4,35.5-34.6c15.3-5.2,34.4-11.8,35.5-12.3l-4.1,41.6l11.8,0.6c0,0,1.6-3-5.8-6.2c0.8-3.9,6.6-35.1,18.4-46.1
		c11.8-10.9,26.6-24.7,27.4-25.7l13.2,39.6l11-4.3c0,0,0.2-3.4-7.8-3.3c-0.8-3.9-8.3-34.8-1.9-49.6c6.4-14.8,14.3-33.4,14.6-34.6
		l28.2,30.8l8.3-8.4c0,0-1.2-3.2-8.5,0.1c-2.3-3.2-21.7-28.4-21.9-44.5s-0.6-36.3-0.8-37.6l38.3,16.7L578.1,627.4z M393,512
		c51.8,0,96.4,31.1,116.1,75.7l-81,28.4c-9-13.8-25.4-21.1-41.7-18.6l-33.1-79.2C365.8,514.2,379.2,512,393,512z M341.6,522.9
		l28.5,80.9c-13.8,9-21.1,25.4-18.6,41.7l-79.1,33.2c-4.1-12.5-6.4-25.9-6.4-39.7C266,587.3,297.1,542.7,341.6,522.9z M393,766
		c-51.8,0-96.4-31.2-116.2-75.7l81-28.4c9,13.8,25.4,21.1,41.7,18.6l33.1,79.2C420.1,763.8,406.8,766,393,766z M444.5,755.1
		l-28.5-80.9c13.8-9,21.1-25.4,18.6-41.7l79.2-33c4.1,12.5,6.3,25.8,6.3,39.6C520,690.7,488.9,735.3,444.5,755.1z"/>
	<circle class="st1" cx="393" cy="639" r="15"/>
	<circle class="st1" cx="393" cy="639" r="15"/>
	<circle class="st1" cx="393" cy="639" r="15"/>
	<circle class="st2" cx="393" cy="639" r="15"/>
</g>
<g id="centre">
	<path class="st3" d="M393,275c-39.7,0-72-32.3-72-72s32.3-72,72-72s72,32.3,72,72S432.7,275,393,275z"/>
	<circle class="st2" cx="393" cy="203" r="9"/>
	<path class="st4" d="M379.5,263.3l6-4.9c-0.7-3.6-3.5-6.4-6.9-6.4c-3.7,0-6.7,3.2-7,7.3L379.5,263.3z"/>
	<path class="st3" d="M350.4,249.2c0,2.2-0.1,6,0,9.2c4.4,3.1,19,12.1,21.4,29.1s8.6,102.3,8.9,105c-1.7,25.5-33.6,45.8-62.1,18.5
		c-5.9,1.1-27.1,7.5-37.8,10.9c-3.5,1.1-5.4,4.8-4.3,8.3l9.7,30.6c0,0,15.3,7.1,16,7.5c-1.8-8.7,27.8-21.8,53.1-22.2
		c14.9-0.2,18.6-0.1,32.2,4.2c2.1,0.3,1.2,0.2,11.7-0.4c2-1.1,17.4-8.5,33.7-8.5c16.8-0.1,24.2,0,25,0c13.4,0,44.2,10.3,53.9,19.7
		v10.7l23.2-3.7l16.4-24.8c2.7-4.1,1.7-9.7-2.4-12.5L523,413.2c-3.3-2.2-7.7-1.8-10.4,1l-3.6,3.6c-4.4,1.6-10.1,7.5-26.6,3.7
		c-16.5-3.9-22.6-4.9-24.7-4.9s-30.4,0-30.8,0c-3.6-0.9-26.8-5.5-28.6-28.8c-1.8-23.3-10.2-105-8.5-108c0.7-3,6.8-21.5,14.8-26.3
		c0.1-2.9,0.1-7.4,0.1-9.6c0-0.5-0.6-0.8-1-0.4l-24.2,19.9L351,248.9C350.8,248.7,350.4,248.9,350.4,249.2z"/>
	<circle class="st5" cx="421.1" cy="307.3" r="9"/>
	<circle class="st5" cx="364.3" cy="307.3" r="9"/>
	<path class="st6" d="M385.6,258.3l-4.3,0.3c0.4-0.6,0.6-1.4,0.6-2.2l-1.8-20.7c-0.2-1.9-1.9-3.4-3.8-3.2h0
		c-1.9,0.2-3.4,1.9-3.2,3.8l1.8,20.7c0.1,0.8,0.4,1.4,0.8,2l-4.2,0.3v12.4l4.5-0.5l-0.2-2.4c-0.2-1.9,1.3-3.6,3.2-3.8
		c1.9-0.2,3.6,1.3,3.8,3.2l0.2,2.3l3.6-0.4L385.6,258.3z"/>
	<path class="st4" d="M379.5,263.3l6-4.9c-0.7-3.6-3.5-6.4-6.9-6.4c-3.7,0-6.7,3.2-7,7.3L379.5,263.3z"/>
	<circle class="st2" cx="393.3" cy="430.3" r="9"/>
	<polygon class="st4" points="288.2,436.2 311,429.5 327.8,481.5 303.7,484.5 	"/>
	<polygon class="st4" points="518,427.5 537.3,441.3 504.8,490.8 491,469.3 	"/>
	<path class="st1" d="M393,169c-18.7,0-34,15.3-34,34c0,12.3,6.6,23.1,16.4,29.1c2.3-0.9,5-1.3,7.9-1.1c5.6,0.5,9.8,2.6,12.4,5.9
		c17.5-1.4,31.3-16,31.3-33.9C427,184.3,411.7,169,393,169z"/>
</g>
<g id="brass_ring">
	<path class="st1" d="M393,546.5c-46.4,0-91.4-9.1-133.7-27c-40.9-17.3-77.6-42.1-109.2-73.6c-31.5-31.5-56.3-68.3-73.6-109.2
		c-17.9-42.4-27-87.3-27-133.7s9.1-91.4,27-133.7c17.3-40.9,42.1-77.6,73.6-109.2s68.3-56.3,109.2-73.6c42.4-17.9,87.3-27,133.7-27
		c46.4,0,91.4,9.1,133.7,27c40.9,17.3,77.6,42.1,109.2,73.6c31.5,31.5,56.3,68.3,73.6,109.2c17.9,42.4,27,87.3,27,133.7
		s-9.1,91.4-27,133.7c-17.3,40.9-42.1,77.6-73.6,109.2c-31.5,31.5-68.3,56.3-109.2,73.6C484.4,537.4,439.4,546.5,393,546.5z"/>
	<path class="st7" d="M393,551.5c-47,0-92.7-9.2-135.7-27.4c-41.5-17.6-78.8-42.7-110.8-74.7c-32-32-57.1-69.3-74.7-110.8
		C53.7,295.7,44.5,250,44.5,203s9.2-92.7,27.4-135.7c17.6-41.5,42.7-78.8,74.7-110.8c32-32,69.3-57.1,110.8-74.7
		c43-18.2,88.6-27.4,135.7-27.4c47,0,92.7,9.2,135.7,27.4c41.5,17.6,78.8,42.7,110.8,74.7c32,32,57.1,69.3,74.7,110.8
		c18.2,43,27.4,88.6,27.4,135.7s-9.2,92.7-27.4,135.7c-17.6,41.5-42.7,78.8-74.7,110.8c-32,32-69.3,57.1-110.8,74.7
		C485.7,542.3,440,551.5,393,551.5z M393,525.5c178.1,0,322.5-144.4,322.5-322.5S571.1-119.5,393-119.5S70.5,24.9,70.5,203
		S214.9,525.5,393,525.5z"/>
	<g>
		<path class="st7" d="M44.5,203c0-8.6,0.3-17.1,0.9-25.6H14.1v42.7h30.8C44.6,214.4,44.5,208.7,44.5,203z"/>
		<path class="st7" d="M74.3,188.3h-3.5c-0.2,4.9-0.3,9.8-0.3,14.7c0,2.1,0,4.2,0.1,6.3h3.7V188.3z"/>
		<polygon class="st7" points="74.4,208.3 74.3,189.7 92.2,198.9 		"/>
	</g>
	<g>
		<path class="st7" d="M91.2,28.8c4.3-7.4,8.8-14.7,13.6-21.7L77.6-8.6l-21.4,37L83,43.8C85.6,38.7,88.3,33.7,91.2,28.8z"/>
		<path class="st7" d="M124.4,30.9l-3-1.7c-2.6,4.1-5.2,8.3-7.7,12.6c-1,1.8-2.1,3.6-3.1,5.5l3.2,1.9L124.4,30.9z"/>
		<polygon class="st7" points="114.4,48.2 123.7,32.1 134.5,49.1 		"/>
	</g>
	<g>
		<path class="st7" d="M91.2,377.3c-4.3-7.4-8.3-15-12-22.6l-27.1,15.7l21.4,37l26.7-15.4C97,387.1,94.1,382.2,91.2,377.3z"/>
		<path class="st7" d="M109.7,349.6l-3,1.7c2.2,4.3,4.6,8.6,7.1,12.9c1,1.8,2.1,3.6,3.2,5.4l3.2-1.9L109.7,349.6z"/>
		<polygon class="st7" points="119.7,366.9 110.3,350.8 130.4,349.9 		"/>
	</g>
	<g>
		<path class="st7" d="M393,551.5c-8.6,0-17.1-0.3-25.6-0.9v31.3h42.7v-30.8C404.4,551.4,398.7,551.5,393,551.5z"/>
		<path class="st7" d="M378.3,521.7v3.5c4.9,0.2,9.8,0.3,14.7,0.3c2.1,0,4.2,0,6.3-0.1v-3.7H378.3z"/>
		<polygon class="st7" points="398.3,521.6 379.7,521.7 388.9,503.8 		"/>
	</g>
	<g>
		<path class="st7" d="M694.8,28.8c4.3,7.4,8.3,15,12,22.6l27.1-15.7l-21.4-37l-26.7,15.4C689,18.9,691.9,23.8,694.8,28.8z"/>
		<path class="st7" d="M676.3,56.4l3-1.7c-2.2-4.3-4.6-8.6-7.1-12.9c-1-1.8-2.1-3.6-3.2-5.4l-3.2,1.9L676.3,56.4z"/>
		<polygon class="st7" points="666.3,39.1 675.7,55.2 655.6,56.1 		"/>
	</g>
	<g>
		<path class="st7" d="M741.5,203c0,8.6-0.3,17.1-0.9,25.6h31.3v-42.7h-30.8C741.4,191.6,741.5,197.3,741.5,203z"/>
		<path class="st7" d="M711.7,217.7h3.5c0.2-4.9,0.3-9.8,0.3-14.7c0-2.1,0-4.2-0.1-6.3h-3.7V217.7z"/>
		<polygon class="st7" points="711.6,197.7 711.7,216.3 693.8,207.1 		"/>
	</g>
	<g>
		<path class="st7" d="M694.8,377.3c-4.3,7.4-8.8,14.7-13.6,21.7l27.1,15.7l21.4-37L703,362.2C700.4,367.3,697.7,372.3,694.8,377.3z
			"/>
		<path class="st7" d="M661.6,375.1l3,1.7c2.6-4.1,5.2-8.3,7.7-12.6c1-1.8,2.1-3.6,3.1-5.5l-3.2-1.9L661.6,375.1z"/>
		<polygon class="st7" points="671.6,357.8 662.3,373.9 651.5,356.9 		"/>
	</g>
	<g>
		<path class="st7" d="M639.4,449.4c-6.1,6.1-12.3,11.9-18.7,17.4l22.2,22.2l30.2-30.2L651.3,437
			C647.4,441.2,643.5,445.4,639.4,449.4z"/>
		<path class="st7" d="M607.9,438.7l2.5,2.5c3.6-3.3,7.2-6.7,10.6-10.2c1.5-1.5,2.9-3,4.4-4.5l-2.6-2.6L607.9,438.7z"/>
		<polygon class="st7" points="622,424.6 608.9,437.8 602.8,418.6 		"/>
	</g>
	<g>
		<path class="st7" d="M302.8,539.6c-8.3-2.2-16.4-4.7-24.5-7.5l-8.1,30.3l41.3,11.1l8-29.8C313.9,542.5,308.3,541.1,302.8,539.6z"
			/>
		<path class="st7" d="M296.3,507l-0.9,3.4c4.7,1.5,9.4,2.9,14.1,4.1c2,0.5,4,1,6.1,1.5l1-3.6L296.3,507z"/>
		<polygon class="st7" points="315.6,512.1 297.6,507.4 311.2,492.5 		"/>
	</g>
	<g>
		<path class="st7" d="M218.8,504.8c-7.4-4.3-14.7-8.8-21.7-13.6l-15.7,27.1l37,21.4l15.4-26.7C228.7,510.4,223.7,507.7,218.8,504.8
			z"/>
		<path class="st7" d="M220.9,471.6l-1.7,3c4.1,2.6,8.3,5.2,12.6,7.7c1.8,1,3.6,2.1,5.5,3.1l1.9-3.2L220.9,471.6z"/>
		<polygon class="st7" points="238.2,481.6 222.1,472.3 239.1,461.5 		"/>
	</g>
	<path class="st7" d="M404.7,164.4c0-0.1-1.8-0.6-1.8-0.5C259,156.3,192.5,125.8,97.4,74c-11.8,27-20,55.9-24,86.1
		c141.3-7.4,280.7,67.1,308.4,82.2c0,0.1,0.7,0.2,0.7,0.2c31.5,1.3,189.4,9.3,306.7,88.4c11.7-27,19.8-56,23.7-86.2
		C604.6,240.1,531.9,231.9,404.7,164.4z"/>
	<g>
		<circle class="st8" cx="120" cy="127" r="29"/>
		<path class="st2" d="M92.1,119c-0.5,1.8-0.8,3.6-1,5.3l54.8,15.7c0.8-1.6,1.5-3.3,2-5.1c0.5-1.8,0.8-3.6,1-5.3l-54.8-15.7
			C93.3,115.5,92.6,117.2,92.1,119z"/>
		<path class="st9" d="M91,128.7c0.7,11.9,8.8,22.7,21,26.2c12.1,3.5,24.7-1.3,31.6-11.1L91,128.7z"/>
	</g>
	<g>
		<circle class="st8" cx="666" cy="277" r="29"/>
		<path class="st2" d="M693.9,285c0.5-1.8,0.8-3.6,1-5.3l-54.8-15.7c-0.8,1.6-1.5,3.3-2,5.1c-0.5,1.8-0.8,3.6-1,5.3l54.8,15.7
			C692.7,288.5,693.4,286.8,693.9,285z"/>
		<path class="st9" d="M695,275.3c-0.7-11.9-8.8-22.7-21-26.2c-12.1-3.5-24.7,1.3-31.6,11.1L695,275.3z"/>
	</g>
</g>
</svg>
